<?xml version="1.0" encoding="UTF-8"?>
<svg width="54px" height="78px" viewBox="0 0 54 78" version="1.1" xmlns="http://www.w3.org/2000/svg" xmlns:xlink="http://www.w3.org/1999/xlink">
    <title>Group 15</title>
    <g id="Full-Comp-Night" stroke="none" stroke-width="1" fill="none" fill-rule="evenodd">
        <g id="Pages/Template" transform="translate(-918.000000, -670.000000)">
            <g id="Group-15" transform="translate(918.500000, 670.000000)">
                <path d="M3.484,12.18 C5.14,12.18 6.268,11.112 6.268,9.552 C6.268,8.736 5.944,8.196 5.584,7.872 C5.176,7.5 4.588,7.284 3.964,7.068 C3.46,6.888 3.196,6.792 3.004,6.612 C2.812,6.444 2.752,6.264 2.752,6.072 C2.752,5.664 3.016,5.136 3.856,5.136 C4.144,5.136 4.696,5.196 5.164,5.82 L5.98,4.752 C5.164,3.912 4.216,3.816 3.712,3.816 C1.936,3.816 1.144,4.992 1.144,6.168 C1.144,6.984 1.516,7.428 1.78,7.656 C2.188,8.016 2.692,8.208 3.112,8.352 C3.568,8.508 4.048,8.664 4.348,8.94 C4.564,9.144 4.66,9.372 4.66,9.66 C4.66,10.332 4.132,10.764 3.424,10.764 C2.86,10.764 2.128,10.476 1.744,9.696 L0.724,10.668 C1.144,11.28 2.008,12.18 3.484,12.18 Z M13.464,12.18 C14.328,12.18 14.964,11.964 15.444,11.712 L15.444,9.888 C14.976,10.44 14.316,10.764 13.572,10.764 C12.228,10.764 10.86,9.804 10.86,8.028 C10.86,6.552 11.904,5.232 13.512,5.232 C13.8,5.232 14.712,5.292 15.444,6.132 L15.444,4.308 C14.712,3.912 14.04,3.816 13.476,3.816 C12.336,3.816 11.34,4.116 10.536,4.872 C9.852,5.508 9.252,6.552 9.252,8.004 C9.252,9.18 9.612,10.176 10.536,11.064 C11.208,11.7 12.06,12.18 13.464,12.18 Z M20.444,12 L20.444,8.784 L20.636,8.784 L22.772,12 L24.716,12 L22.22,8.628 C22.604,8.556 22.892,8.424 23.096,8.28 C23.72,7.86 24.032,7.176 24.032,6.396 C24.032,5.796 23.852,5.112 23.24,4.596 C22.868,4.284 22.304,3.996 21.2,3.996 L18.884,3.996 L18.884,12 L20.444,12 Z M20.9345068,7.67967318 L20.444,7.68 L20.444,5.268 L20.912,5.268 C21.2,5.268 22.424,5.28 22.424,6.468 C22.424,7.59054545 21.2978099,7.6743719 20.9345068,7.67967318 L20.9345068,7.67967318 Z M31.66,12.18 C34.18,12.18 35.932,10.44 35.932,8.004 C35.932,5.568 34.18,3.816 31.66,3.816 C29.14,3.816 27.388,5.568 27.388,8.004 C27.388,10.44 29.14,12.18 31.66,12.18 Z M31.66,10.764 C30.1,10.764 28.996,9.624 28.996,8.004 C28.996,6.384 30.1,5.232 31.66,5.232 C33.22,5.232 34.324,6.384 34.324,8.004 C34.324,9.624 33.22,10.764 31.66,10.764 Z M43.404,12 L43.404,10.656 L40.932,10.656 L40.932,3.996 L39.372,3.996 L39.372,12 L43.404,12 Z M50.516,12 L50.516,10.656 L48.044,10.656 L48.044,3.996 L46.484,3.996 L46.484,12 L50.516,12 Z M6.054,28 C7.17,28 8.046,27.892 8.982,27.232 C10.038,26.488 10.59,25.336 10.59,24.004 C10.59,22.672 10.026,21.508 9.054,20.776 C8.166,20.116 7.194,19.996 6.078,19.996 L3.99,19.996 L3.99,28 L6.054,28 Z M6.12940282,26.6553664 L5.55,26.656 L5.55,21.34 L6.03,21.34 C6.558,21.34 7.35,21.388 7.998,21.868 C8.634,22.348 8.982,23.164 8.982,24.004 C8.982,24.856 8.622,25.672 7.986,26.128 C7.34353846,26.5932308 6.55792899,26.6494675 6.12940282,26.6553664 Z M17.918,28.18 C20.438,28.18 22.19,26.44 22.19,24.004 C22.19,21.568 20.438,19.816 17.918,19.816 C15.398,19.816 13.646,21.568 13.646,24.004 C13.646,26.44 15.398,28.18 17.918,28.18 Z M17.918,26.764 C16.358,26.764 15.254,25.624 15.254,24.004 C15.254,22.384 16.358,21.232 17.918,21.232 C19.478,21.232 20.582,22.384 20.582,24.004 C20.582,25.624 19.478,26.764 17.918,26.764 Z M28.834,28 L30.67,22.924 L32.422,28 L33.598,28 L36.562,19.996 L34.906,19.996 L32.986,25.444 L31.138,19.924 L30.274,19.924 L28.318,25.444 L26.53,19.996 L24.874,19.996 L27.658,28 L28.834,28 Z M41.058,28 L41.058,22.648 L45.93,28 L47.01,28 L47.01,19.996 L45.45,19.996 L45.45,25.336 L40.578,19.996 L39.498,19.996 L39.498,28 L41.058,28 Z" id="SCROLLDOWN" fill="#FFB990" fill-rule="nonzero"></path>
                <path d="M14.25,64.75 L39.25,64.75 M18.75,67.75 L13.75,64.75 L18.75,61.75" id="Combined-Shape" stroke="#FFB990" stroke-width="0.5" transform="translate(26.500000, 64.750000) scale(1, -1) rotate(-270.000000) translate(-26.500000, -64.750000) "></path>
            </g>
        </g>
    </g>
</svg>